<svg width="18" height="19" viewBox="0 0 18 19" xmlns="http://www.w3.org/2000/svg">
<path d="M3.75 16.5664C3.3375 16.5664 2.98425 16.4197 2.69025 16.1262C2.39675 15.8322 2.25 15.4789 2.25 15.0664V4.56641C2.25 4.15391 2.39675 3.80091 2.69025 3.50741C2.98425 3.21341 3.3375 3.06641 3.75 3.06641H4.5V1.56641H6V3.06641H12V1.56641H13.5V3.06641H14.25C14.6625 3.06641 15.0157 3.21341 15.3097 3.50741C15.6033 3.80091 15.75 4.15391 15.75 4.56641V15.0664C15.75 15.4789 15.6033 15.8322 15.3097 16.1262C15.0157 16.4197 14.6625 16.5664 14.25 16.5664H3.75ZM3.75 15.0664H14.25V7.56641H3.75V15.0664ZM3.75 6.06641H14.25V4.56641H3.75V6.06641ZM9 10.5664C8.7875 10.5664 8.6095 10.4944 8.466 10.3504C8.322 10.2069 8.25 10.0289 8.25 9.81641C8.25 9.60391 8.322 9.42566 8.466 9.28166C8.6095 9.13816 8.7875 9.06641 9 9.06641C9.2125 9.06641 9.39075 9.13816 9.53475 9.28166C9.67825 9.42566 9.75 9.60391 9.75 9.81641C9.75 10.0289 9.67825 10.2069 9.53475 10.3504C9.39075 10.4944 9.2125 10.5664 9 10.5664ZM6 10.5664C5.7875 10.5664 5.60925 10.4944 5.46525 10.3504C5.32175 10.2069 5.25 10.0289 5.25 9.81641C5.25 9.60391 5.32175 9.42566 5.46525 9.28166C5.60925 9.13816 5.7875 9.06641 6 9.06641C6.2125 9.06641 6.39075 9.13816 6.53475 9.28166C6.67825 9.42566 6.75 9.60391 6.75 9.81641C6.75 10.0289 6.67825 10.2069 6.53475 10.3504C6.39075 10.4944 6.2125 10.5664 6 10.5664ZM12 10.5664C11.7875 10.5664 11.6095 10.4944 11.466 10.3504C11.322 10.2069 11.25 10.0289 11.25 9.81641C11.25 9.60391 11.322 9.42566 11.466 9.28166C11.6095 9.13816 11.7875 9.06641 12 9.06641C12.2125 9.06641 12.3905 9.13816 12.534 9.28166C12.678 9.42566 12.75 9.60391 12.75 9.81641C12.75 10.0289 12.678 10.2069 12.534 10.3504C12.3905 10.4944 12.2125 10.5664 12 10.5664ZM9 13.5664C8.7875 13.5664 8.6095 13.4944 8.466 13.3504C8.322 13.2069 8.25 13.0289 8.25 12.8164C8.25 12.6039 8.322 12.4259 8.466 12.2824C8.6095 12.1384 8.7875 12.0664 9 12.0664C9.2125 12.0664 9.39075 12.1384 9.53475 12.2824C9.67825 12.4259 9.75 12.6039 9.75 12.8164C9.75 13.0289 9.67825 13.2069 9.53475 13.3504C9.39075 13.4944 9.2125 13.5664 9 13.5664ZM6 13.5664C5.7875 13.5664 5.60925 13.4944 5.46525 13.3504C5.32175 13.2069 5.25 13.0289 5.25 12.8164C5.25 12.6039 5.32175 12.4259 5.46525 12.2824C5.60925 12.1384 5.7875 12.0664 6 12.0664C6.2125 12.0664 6.39075 12.1384 6.53475 12.2824C6.67825 12.4259 6.75 12.6039 6.75 12.8164C6.75 13.0289 6.67825 13.2069 6.53475 13.3504C6.39075 13.4944 6.2125 13.5664 6 13.5664ZM12 13.5664C11.7875 13.5664 11.6095 13.4944 11.466 13.3504C11.322 13.2069 11.25 13.0289 11.25 12.8164C11.25 12.6039 11.322 12.4259 11.466 12.2824C11.6095 12.1384 11.7875 12.0664 12 12.0664C12.2125 12.0664 12.3905 12.1384 12.534 12.2824C12.678 12.4259 12.75 12.6039 12.75 12.8164C12.75 13.0289 12.678 13.2069 12.534 13.3504C12.3905 13.4944 12.2125 13.5664 12 13.5664Z" fill="currentColor"/>
</svg>
