<svg width="16" height="14" viewBox="0 0 16 14" xmlns="http://www.w3.org/2000/svg">
<path d="M11.147 8C11.2715 7.66849 11.3346 7.31724 11.3334 6.96328C11.3334 6.17737 11.0201 5.42365 10.4626 4.86793C9.90509 4.3122 9.14892 4 8.36046 4C8.00973 4.00041 7.66189 4.06331 7.33337 4.18574L8.0311 4.90281C8.13716 4.88589 8.24438 4.87723 8.35179 4.87689C8.90929 4.87573 9.4446 5.09449 9.84084 5.4854C10.2371 5.8763 10.462 6.40761 10.4666 6.96328C10.4663 7.07034 10.4576 7.17722 10.4406 7.28294L11.147 8Z" fill="currentColor"/>
<path d="M15.8552 6.71976C14.1715 3.77935 11.2188 2 7.95133 2C7.0617 2.00197 6.17805 2.13739 5.33337 2.40118L6.13775 3.16578C6.73021 3.02114 7.33941 2.94662 7.95133 2.94395C10.7641 2.94395 13.3221 4.42596 14.8459 6.92271C14.287 7.84902 13.5459 8.666 12.6626 9.32979L13.3721 10C14.3943 9.22093 15.2433 8.2585 15.8701 7.16814L16 6.94159L15.8552 6.71976Z" fill="currentColor"/>
<path d="M1.20927 0.758546L3.37528 3.02909C2.00619 3.95315 0.887237 5.2313 0.126269 6.74036L0 6.97964L0.126269 7.224C1.76291 10.3956 4.63311 12.3149 7.80927 12.3149C9.04897 12.3146 10.2726 12.0205 11.3885 11.4545L13.8168 14L14.6667 13.2364L2.03974 0L1.20927 0.758546ZM5.94437 5.72218L9.17395 9.10764C8.80904 9.34441 8.38897 9.47123 7.95982 9.47418C7.648 9.47419 7.33926 9.40956 7.05135 9.28401C6.76345 9.15846 6.50207 8.97447 6.28226 8.74263C6.06244 8.51079 5.88854 8.23567 5.77054 7.9331C5.65254 7.63054 5.59278 7.3065 5.5947 6.97964C5.60017 6.53498 5.72106 6.10027 5.94437 5.72218ZM5.24018 4.984C4.78582 5.65569 4.57286 6.47426 4.639 7.29476C4.70514 8.11526 5.04611 8.88475 5.60155 9.467C6.15699 10.0492 6.89106 10.4067 7.67378 10.476C8.4565 10.5453 9.23738 10.3221 9.87815 9.84582L10.6552 10.6604C9.75565 11.0634 8.78754 11.2712 7.80927 11.2713C5.07505 11.2713 2.58852 9.67273 1.10728 6.97964C1.81814 5.66018 2.8419 4.55545 4.07947 3.77236L5.24018 4.984Z" fill="currentColor"/>
</svg>
