<svg width="21" height="21" viewBox="0 0 21 21" xmlns="http://www.w3.org/2000/svg">
<path id="Vector" d="M15.9583 4.06641H20.9583V6.06641H18.9583V19.0664C18.9583 19.3316 18.8529 19.586 18.6654 19.7735C18.4778 19.9611 18.2235 20.0664 17.9583 20.0664H3.95825C3.69304 20.0664 3.43868 19.9611 3.25115 19.7735C3.06361 19.586 2.95825 19.3316 2.95825 19.0664V6.06641H0.958252V4.06641H5.95825V1.06641C5.95825 0.80119 6.06361 0.546836 6.25115 0.359299C6.43868 0.171763 6.69304 0.0664063 6.95825 0.0664062H14.9583C15.2235 0.0664063 15.4778 0.171763 15.6654 0.359299C15.8529 0.546836 15.9583 0.80119 15.9583 1.06641V4.06641ZM16.9583 6.06641H4.95825V18.0664H16.9583V6.06641ZM12.3723 12.0664L14.1403 13.8344L12.7263 15.2484L10.9583 13.4804L9.19025 15.2484L7.77625 13.8344L9.54425 12.0664L7.77625 10.2984L9.19025 8.88441L10.9583 10.6524L12.7263 8.88441L14.1403 10.2984L12.3723 12.0664ZM7.95825 2.06641V4.06641H13.9583V2.06641H7.95825Z" fill="currentColor"/>
</svg>
