<svg width="20" height="21" viewBox="0 0 20 21" xmlns="http://www.w3.org/2000/svg">
<path d="M0 10.5C0 4.977 4.476 0.5 10 0.5C15.522 0.5 20 4.977 20 10.5C20 16.023 15.522 20.5 10 20.5C4.476 20.5 0 16.023 0 10.5Z" fill="currentColor"/>
<path d="M11.28 6.16655H10.356C8.66195 6.16655 7.77095 7.02455 7.77095 8.28955C7.77095 9.71955 8.38695 10.3895 9.65195 11.2485L10.697 11.9525L7.69395 16.4395H5.44995L8.14495 12.4255C6.59495 11.3145 5.72495 10.2355 5.72495 8.41055C5.72495 6.12255 7.31995 4.56055 10.345 4.56055H13.348V16.4285H11.28V6.16655Z" fill="white"/>
</svg>
