<svg width="102" height="18" viewBox="0 0 102 18" fill="none" xmlns="http://www.w3.org/2000/svg">
<path d="M0.864 10.1964V4.97641C0.864 4.37641 0.972 3.83641 1.188 3.35641C1.404 2.86441 1.71 2.45041 2.106 2.11441C2.502 1.76641 2.976 1.49641 3.528 1.30441C4.092 1.11241 4.716 1.01641 5.4 1.01641C6.036 1.01641 6.618 1.10641 7.146 1.28641C7.674 1.45441 8.136 1.70641 8.532 2.04241C8.928 2.36641 9.246 2.76241 9.486 3.23041C9.726 3.69841 9.876 4.22041 9.936 4.79641H7.236C7.188 4.37641 6.996 4.04641 6.66 3.80641C6.336 3.56641 5.916 3.44641 5.4 3.44641C4.836 3.44641 4.386 3.59041 4.05 3.87841C3.726 4.15441 3.564 4.52041 3.564 4.97641V10.1964C3.564 10.7124 3.726 11.1264 4.05 11.4384C4.386 11.7384 4.836 11.8884 5.4 11.8884C5.964 11.8884 6.408 11.7384 6.732 11.4384C7.068 11.1264 7.236 10.7124 7.236 10.1964V9.15241H5.22V6.86641H9.936V10.1964C9.936 10.8084 9.828 11.3664 9.612 11.8704C9.396 12.3624 9.09 12.7884 8.694 13.1484C8.298 13.4964 7.818 13.7664 7.254 13.9584C6.702 14.1504 6.084 14.2464 5.4 14.2464C4.716 14.2464 4.092 14.1504 3.528 13.9584C2.976 13.7664 2.502 13.4964 2.106 13.1484C1.71 12.7884 1.404 12.3624 1.188 11.8704C0.972 11.3664 0.864 10.8084 0.864 10.1964ZM18.353 14.2464C17.669 14.2464 17.045 14.1504 16.481 13.9584C15.929 13.7664 15.455 13.4964 15.059 13.1484C14.663 12.7884 14.357 12.3624 14.141 11.8704C13.925 11.3664 13.817 10.8084 13.817 10.1964V4.95841C13.817 4.34641 13.925 3.79441 14.141 3.30241C14.357 2.81041 14.663 2.39041 15.059 2.04241C15.455 1.68241 15.929 1.40641 16.481 1.21441C17.045 1.02241 17.669 0.926406 18.353 0.926406C19.037 0.926406 19.655 1.02241 20.207 1.21441C20.771 1.40641 21.251 1.68241 21.647 2.04241C22.043 2.39041 22.349 2.81041 22.565 3.30241C22.781 3.79441 22.889 4.34641 22.889 4.95841V10.1964C22.889 10.7964 22.775 11.3484 22.547 11.8524C22.331 12.3444 22.025 12.7704 21.629 13.1304C21.233 13.4784 20.753 13.7544 20.189 13.9584C19.637 14.1504 19.025 14.2464 18.353 14.2464ZM16.517 10.1964C16.517 10.7124 16.679 11.1264 17.003 11.4384C17.339 11.7384 17.789 11.8884 18.353 11.8884C18.917 11.8884 19.361 11.7384 19.685 11.4384C20.021 11.1264 20.189 10.7124 20.189 10.1964V4.95841C20.189 4.44241 20.021 4.03441 19.685 3.73441C19.361 3.42241 18.917 3.26641 18.353 3.26641C17.789 3.26641 17.339 3.42241 17.003 3.73441C16.679 4.03441 16.517 4.44241 16.517 4.95841V10.1964ZM26.9859 14.5164H35.6259V17.0364H26.9859V14.5164ZM39.4889 3.62641V1.10641H49.0289V3.62641H45.6089V14.0664H42.9089V3.62641H39.4889ZM57.3019 1.10641C58.0099 1.10641 58.6459 1.20241 59.2099 1.39441C59.7739 1.57441 60.2539 1.83841 60.6499 2.18641C61.0459 2.52241 61.3519 2.93641 61.5679 3.42841C61.7839 3.90841 61.8919 4.45441 61.8919 5.06641C61.8919 5.90641 61.6879 6.62641 61.2799 7.22641C60.8719 7.82641 60.3079 8.28241 59.5879 8.59441L62.0719 14.0664H59.1919L56.9959 9.02641H55.6639V14.0664H52.9819V1.10641H57.3019ZM55.6639 6.95641H57.3019C57.8899 6.95641 58.3519 6.80041 58.6879 6.48841C59.0239 6.16441 59.1919 5.73241 59.1919 5.19241C59.1919 4.62841 59.0179 4.18441 58.6699 3.86041C58.3339 3.52441 57.8779 3.35641 57.3019 3.35641H55.6639V6.95641ZM68.4008 1.10641H72.0008L75.3848 14.0664H72.6488L71.9648 11.0964H68.3468L67.6628 14.0664H64.9448L68.4008 1.10641ZM71.4608 8.99041L70.4708 4.72441C70.4348 4.54441 70.3988 4.35241 70.3628 4.14841C70.3268 3.93241 70.2968 3.72841 70.2728 3.53641C70.2488 3.33241 70.2248 3.12241 70.2008 2.90641H70.0928C70.0688 3.12241 70.0388 3.33241 70.0028 3.53641C69.9788 3.72841 69.9488 3.93241 69.9128 4.14841C69.8888 4.35241 69.8528 4.54441 69.8048 4.72441L68.8328 8.99041H71.4608ZM83.1898 14.2464C82.5058 14.2464 81.8878 14.1504 81.3358 13.9584C80.7838 13.7664 80.3098 13.4964 79.9138 13.1484C79.5178 12.7884 79.2118 12.3624 78.9958 11.8704C78.7798 11.3664 78.6718 10.8084 78.6718 10.1964V4.97641C78.6718 4.36441 78.7798 3.81241 78.9958 3.32041C79.2118 2.81641 79.5178 2.39041 79.9138 2.04241C80.3098 1.68241 80.7838 1.40641 81.3358 1.21441C81.8998 1.02241 82.5238 0.926406 83.2078 0.926406C83.8798 0.926406 84.4918 1.02241 85.0438 1.21441C85.5958 1.40641 86.0698 1.68241 86.4658 2.04241C86.8618 2.39041 87.1678 2.81641 87.3838 3.32041C87.5998 3.81241 87.7078 4.36441 87.7078 4.97641H85.0078C85.0078 4.47241 84.8458 4.07641 84.5218 3.78841C84.1978 3.50041 83.7598 3.35641 83.2078 3.35641C82.6438 3.35641 82.1938 3.50041 81.8578 3.78841C81.5338 4.07641 81.3718 4.47241 81.3718 4.97641V10.1964C81.3718 10.7004 81.5278 11.0964 81.8398 11.3844C82.1638 11.6724 82.6138 11.8164 83.1898 11.8164C83.7538 11.8164 84.1978 11.6664 84.5218 11.3664C84.8458 11.0664 85.0078 10.6764 85.0078 10.1964H87.7078C87.7078 10.8084 87.5998 11.3664 87.3838 11.8704C87.1678 12.3624 86.8618 12.7884 86.4658 13.1484C86.0698 13.4964 85.5958 13.7664 85.0438 13.9584C84.4918 14.1504 83.8738 14.2464 83.1898 14.2464ZM94.5408 1.10641V6.18241H95.9088L98.0688 1.10641H101.003L98.3028 7.37041L101.111 14.0664H98.1408L95.9088 8.66641H94.5408V14.0664H91.8408V1.10641H94.5408Z" fill="#49AA4F"/>
</svg>
