<svg width="0" height="0" class="hidden">
  <symbol xmlns="http://www.w3.org/2000/svg" viewBox="0 0 8 14" id="ic_arr_hor">
    <path d="M0.824341 13.0664L6.82434 7.06641L0.824341 1.06641" stroke="currentColor" fill="none"></path>
  </symbol>
  <symbol xmlns="http://www.w3.org/2000/svg" viewBox="0 0 14 8" id="ic_arr_ver">
    <path d="M1 1.06641L7 7.06641L13 1.06641" stroke="currentColor" fill="none"></path>
  </symbol>
  <symbol xmlns="http://www.w3.org/2000/svg" viewBox="0 0 18 19" id="ic_calendar">
    <path d="M3.75 16.5664C3.3375 16.5664 2.98425 16.4197 2.69025 16.1262C2.39675 15.8322 2.25 15.4789 2.25 15.0664V4.56641C2.25 4.15391 2.39675 3.80091 2.69025 3.50741C2.98425 3.21341 3.3375 3.06641 3.75 3.06641H4.5V1.56641H6V3.06641H12V1.56641H13.5V3.06641H14.25C14.6625 3.06641 15.0157 3.21341 15.3097 3.50741C15.6033 3.80091 15.75 4.15391 15.75 4.56641V15.0664C15.75 15.4789 15.6033 15.8322 15.3097 16.1262C15.0157 16.4197 14.6625 16.5664 14.25 16.5664H3.75ZM3.75 15.0664H14.25V7.56641H3.75V15.0664ZM3.75 6.06641H14.25V4.56641H3.75V6.06641ZM9 10.5664C8.7875 10.5664 8.6095 10.4944 8.466 10.3504C8.322 10.2069 8.25 10.0289 8.25 9.81641C8.25 9.60391 8.322 9.42566 8.466 9.28166C8.6095 9.13816 8.7875 9.06641 9 9.06641C9.2125 9.06641 9.39075 9.13816 9.53475 9.28166C9.67825 9.42566 9.75 9.60391 9.75 9.81641C9.75 10.0289 9.67825 10.2069 9.53475 10.3504C9.39075 10.4944 9.2125 10.5664 9 10.5664ZM6 10.5664C5.7875 10.5664 5.60925 10.4944 5.46525 10.3504C5.32175 10.2069 5.25 10.0289 5.25 9.81641C5.25 9.60391 5.32175 9.42566 5.46525 9.28166C5.60925 9.13816 5.7875 9.06641 6 9.06641C6.2125 9.06641 6.39075 9.13816 6.53475 9.28166C6.67825 9.42566 6.75 9.60391 6.75 9.81641C6.75 10.0289 6.67825 10.2069 6.53475 10.3504C6.39075 10.4944 6.2125 10.5664 6 10.5664ZM12 10.5664C11.7875 10.5664 11.6095 10.4944 11.466 10.3504C11.322 10.2069 11.25 10.0289 11.25 9.81641C11.25 9.60391 11.322 9.42566 11.466 9.28166C11.6095 9.13816 11.7875 9.06641 12 9.06641C12.2125 9.06641 12.3905 9.13816 12.534 9.28166C12.678 9.42566 12.75 9.60391 12.75 9.81641C12.75 10.0289 12.678 10.2069 12.534 10.3504C12.3905 10.4944 12.2125 10.5664 12 10.5664ZM9 13.5664C8.7875 13.5664 8.6095 13.4944 8.466 13.3504C8.322 13.2069 8.25 13.0289 8.25 12.8164C8.25 12.6039 8.322 12.4259 8.466 12.2824C8.6095 12.1384 8.7875 12.0664 9 12.0664C9.2125 12.0664 9.39075 12.1384 9.53475 12.2824C9.67825 12.4259 9.75 12.6039 9.75 12.8164C9.75 13.0289 9.67825 13.2069 9.53475 13.3504C9.39075 13.4944 9.2125 13.5664 9 13.5664ZM6 13.5664C5.7875 13.5664 5.60925 13.4944 5.46525 13.3504C5.32175 13.2069 5.25 13.0289 5.25 12.8164C5.25 12.6039 5.32175 12.4259 5.46525 12.2824C5.60925 12.1384 5.7875 12.0664 6 12.0664C6.2125 12.0664 6.39075 12.1384 6.53475 12.2824C6.67825 12.4259 6.75 12.6039 6.75 12.8164C6.75 13.0289 6.67825 13.2069 6.53475 13.3504C6.39075 13.4944 6.2125 13.5664 6 13.5664ZM12 13.5664C11.7875 13.5664 11.6095 13.4944 11.466 13.3504C11.322 13.2069 11.25 13.0289 11.25 12.8164C11.25 12.6039 11.322 12.4259 11.466 12.2824C11.6095 12.1384 11.7875 12.0664 12 12.0664C12.2125 12.0664 12.3905 12.1384 12.534 12.2824C12.678 12.4259 12.75 12.6039 12.75 12.8164C12.75 13.0289 12.678 13.2069 12.534 13.3504C12.3905 13.4944 12.2125 13.5664 12 13.5664Z" fill="currentColor"></path>
  </symbol>
  <symbol xmlns="http://www.w3.org/2000/svg" viewBox="0 0 10 8" id="ic_check">
    <path d="M8.49779 0.151367L10 1.65358L3.67222 7.98136L0 4.30914L1.50221 2.80693L3.67222 4.97694L8.49779 0.151367Z" fill="currentColor"></path>
  </symbol>
  <symbol xmlns="http://www.w3.org/2000/svg" viewBox="0 0 14 14" id="ic_close">
    <path d="M1 13.0664L7 7.06641M7 7.06641L1 1.06641M7 7.06641L13 13.0664M7 7.06641L13 1.06641" stroke="currentColor" fill="none"></path>
  </symbol>
  <symbol xmlns="http://www.w3.org/2000/svg" viewBox="0 0 19 19" id="ic_edit">
    <path d="M11.8842 6.06641L12.8242 7.00641L3.74422 16.0664H2.82422V15.1464L11.8842 6.06641ZM15.4842 0.0664062C15.2342 0.0664062 14.9742 0.166406 14.7842 0.356406L12.9542 2.18641L16.7042 5.93641L18.5342 4.10641C18.9242 3.71641 18.9242 3.06641 18.5342 2.69641L16.1942 0.356406C15.9942 0.156406 15.7442 0.0664062 15.4842 0.0664062ZM11.8842 3.25641L0.824219 14.3164V18.0664H4.57422L15.6342 7.00641L11.8842 3.25641Z" fill="currentColor"></path>
  </symbol>
  <symbol xmlns="http://www.w3.org/2000/svg" viewBox="0 0 16 14" id="ic_eye2">
    <path d="M11.147 8C11.2715 7.66849 11.3346 7.31724 11.3334 6.96328C11.3334 6.17737 11.0201 5.42365 10.4626 4.86793C9.90509 4.3122 9.14892 4 8.36046 4C8.00973 4.00041 7.66189 4.06331 7.33337 4.18574L8.0311 4.90281C8.13716 4.88589 8.24438 4.87723 8.35179 4.87689C8.90929 4.87573 9.4446 5.09449 9.84084 5.4854C10.2371 5.8763 10.462 6.40761 10.4666 6.96328C10.4663 7.07034 10.4576 7.17722 10.4406 7.28294L11.147 8Z" fill="currentColor"></path>
    <path d="M15.8552 6.71976C14.1715 3.77935 11.2188 2 7.95133 2C7.0617 2.00197 6.17805 2.13739 5.33337 2.40118L6.13775 3.16578C6.73021 3.02114 7.33941 2.94662 7.95133 2.94395C10.7641 2.94395 13.3221 4.42596 14.8459 6.92271C14.287 7.84902 13.5459 8.666 12.6626 9.32979L13.3721 10C14.3943 9.22093 15.2433 8.2585 15.8701 7.16814L16 6.94159L15.8552 6.71976Z" fill="currentColor"></path>
    <path d="M1.20927 0.758546L3.37528 3.02909C2.00619 3.95315 0.887237 5.2313 0.126269 6.74036L0 6.97964L0.126269 7.224C1.76291 10.3956 4.63311 12.3149 7.80927 12.3149C9.04897 12.3146 10.2726 12.0205 11.3885 11.4545L13.8168 14L14.6667 13.2364L2.03974 0L1.20927 0.758546ZM5.94437 5.72218L9.17395 9.10764C8.80904 9.34441 8.38897 9.47123 7.95982 9.47418C7.648 9.47419 7.33926 9.40956 7.05135 9.28401C6.76345 9.15846 6.50207 8.97447 6.28226 8.74263C6.06244 8.51079 5.88854 8.23567 5.77054 7.9331C5.65254 7.63054 5.59278 7.3065 5.5947 6.97964C5.60017 6.53498 5.72106 6.10027 5.94437 5.72218ZM5.24018 4.984C4.78582 5.65569 4.57286 6.47426 4.639 7.29476C4.70514 8.11526 5.04611 8.88475 5.60155 9.467C6.15699 10.0492 6.89106 10.4067 7.67378 10.476C8.4565 10.5453 9.23738 10.3221 9.87815 9.84582L10.6552 10.6604C9.75565 11.0634 8.78754 11.2712 7.80927 11.2713C5.07505 11.2713 2.58852 9.67273 1.10728 6.97964C1.81814 5.66018 2.8419 4.55545 4.07947 3.77236L5.24018 4.984Z" fill="currentColor"></path>
  </symbol>
  <symbol xmlns="http://www.w3.org/2000/svg" viewBox="0 0 15 12" id="ic_filter_check">
    <path d="M5.29294 9.17191L1.99994 5.87891L0.585938 7.29291L5.29294 11.9999L14.9999 2.29291L13.5859 0.878906L5.29294 9.17191Z" fill="currentColor"></path>
  </symbol>
  <symbol xmlns="http://www.w3.org/2000/svg" viewBox="0 0 12 12" id="ic_link">
    <path d="M10.9583 1.06641H6.67255" stroke="currentColor" stroke-linecap="square" stroke-linejoin="round" fill="none"></path>
    <path d="M10.9583 1.06641V5.35212" stroke="currentColor" stroke-linecap="square" stroke-linejoin="round" fill="none"></path>
    <path d="M5.40271 6.62196L10.9583 1.06641" stroke="currentColor" fill="none"></path>
    <path d="M3.65666 1.06641H0.958252V11.0664H10.9583V8.36799" stroke="currentColor" stroke-linecap="square" fill="none"></path>
  </symbol>
  <symbol xmlns="http://www.w3.org/2000/svg" viewBox="0 0 21 21" id="ic_remove">
    <path id="Vector" d="M15.9583 4.06641H20.9583V6.06641H18.9583V19.0664C18.9583 19.3316 18.8529 19.586 18.6654 19.7735C18.4778 19.9611 18.2235 20.0664 17.9583 20.0664H3.95825C3.69304 20.0664 3.43868 19.9611 3.25115 19.7735C3.06361 19.586 2.95825 19.3316 2.95825 19.0664V6.06641H0.958252V4.06641H5.95825V1.06641C5.95825 0.80119 6.06361 0.546836 6.25115 0.359299C6.43868 0.171763 6.69304 0.0664063 6.95825 0.0664062H14.9583C15.2235 0.0664063 15.4778 0.171763 15.6654 0.359299C15.8529 0.546836 15.9583 0.80119 15.9583 1.06641V4.06641ZM16.9583 6.06641H4.95825V18.0664H16.9583V6.06641ZM12.3723 12.0664L14.1403 13.8344L12.7263 15.2484L10.9583 13.4804L9.19025 15.2484L7.77625 13.8344L9.54425 12.0664L7.77625 10.2984L9.19025 8.88441L10.9583 10.6524L12.7263 8.88441L14.1403 10.2984L12.3723 12.0664ZM7.95825 2.06641V4.06641H13.9583V2.06641H7.95825Z" fill="currentColor"></path>
  </symbol>
  <symbol xmlns="http://www.w3.org/2000/svg" viewBox="0 0 20 21" id="ic_ya">
    <path d="M0 10.5C0 4.977 4.476 0.5 10 0.5C15.522 0.5 20 4.977 20 10.5C20 16.023 15.522 20.5 10 20.5C4.476 20.5 0 16.023 0 10.5Z" fill="currentColor"></path>
    <path d="M11.28 6.16655H10.356C8.66195 6.16655 7.77095 7.02455 7.77095 8.28955C7.77095 9.71955 8.38695 10.3895 9.65195 11.2485L10.697 11.9525L7.69395 16.4395H5.44995L8.14495 12.4255C6.59495 11.3145 5.72495 10.2355 5.72495 8.41055C5.72495 6.12255 7.31995 4.56055 10.345 4.56055H13.348V16.4285H11.28V6.16655Z" fill="white"></path>
  </symbol>
</svg>